#!OML:ASF H:\Terrain\Patient Classification 1\Walking\steve\steve.ASF
:FULLY-SPECIFIED
:DEGREES
227
root 7.11863 16.1459 -9.29605 6.26889 -6.42324 0.0449146
lowerback -1.75616 4.93673 -1.55945
upperback -1.95962 6.58845 -1.36008
thorax -1.04578 3.30487 -0.474475
lowerneck -10.9028 -1.31175 -2.12502
upperneck 17.6464 -1.95126 2.94657
head 7.25414 -0.80623 1.12736
rclavicle 1.87976e-014 3.97569e-015
rhumerus -32.3651 -4.5396 -86.0327
rradius 32.7043
rwrist -6.17816
rhand -20.6908 -38.2829
rfingers 7.12502
rthumb 5.67287 -68.1869
lclavicle 1.87976e-014 3.97569e-015
lhumerus -45.0073 19.6622 69.4841
lradius 16.9603
lwrist -0.822999
lhand -23.5062 -14.6827
lfingers 7.12502
lthumb 2.95429 15.2766
rfemur -11.3256 4.09968 19.6115
rtibia 63.807
rfoot 5.84191 -2.60744
rtoes -13.6187
lfemur -28.2499 2.42066 -23.1826
ltibia 31.9876
lfoot -10.4309 1.88479
ltoes -1.98913
228
root 7.13149 16.1537 -9.15472 6.14993 -6.3343 0.0713044
lowerback -1.66776 4.86782 -1.60151
upperback -1.91439 6.49621 -1.26443
thorax -1.06398 3.2597 -0.361164
lowerneck -10.7819 -1.33606 -2.34855
upperneck 17.7241 -1.94893 2.95772
head 7.26012 -0.819602 1.16916
rclavicle -9.04098e-014 -1.51076e-014
rhumerus -33.1388 -4.81708 -86.0102
rradius 32.062
rwrist -6.38434
rhand -20.8706 -36.1381
rfingers 7.12502
rthumb 5.49932 -66.0467
lclavicle -9.04098e-014 -1.51076e-014
lhumerus -43.9321 20.8698 69.5211
lradius 16.9066
lwrist -2.59144
lhand -24.1293 -16.4468
lfingers 7.12502
lthumb 2.35245 13.5199
rfemur -12.5599 4.0162 19.6674
rtibia 64.9614
rfoot 4.00713 -1.70617
rtoes -15.3534
lfemur -27.4661 2.39976 -23.2921
ltibia 31.8417
lfoot -10.7421 1.64783
ltoes -0.6932
229
root 7.14843 16.1614 -9.00894 6.04323 -6.2303 0.220977
lowerback -1.53146 4.75006 -1.75978
upperback -1.95514 6.33649 -1.21003
thorax -1.20419 3.18277 -0.23583
lowerneck -10.3988 -1.33428 -2.40083
upperneck 17.5207 -1.90334 2.76442
head 7.12352 -0.822448 1.12035
rclavicle 2.78423e-014 9.14409e-015
rhumerus -34.0113 -5.50332 -85.7279
rradius 31.1696
rwrist -5.36167
rhand -21.1721 -34.9556
rfingers 7.12502
rthumb 5.20817 -64.8716
lclavicle 2.78423e-014 9.14409e-015
lhumerus -42.8718 21.324 70.0624
lradius 16.7525
lwrist -3.69777
lhand -24.5164 -13.7186
lfingers 7.12502
lthumb 1.97862 16.252
rfemur -13.7727 3.87196 19.5493
rtibia 65.8873
rfoot 2.26103 -0.862011
rtoes -14.2781
lfemur -26.6956 2.21193 -23.5387
ltibia 31.7111
lfoot -11.261 1.47529
ltoes 0.338864
230
root 7.17173 16.1647 -8.8622 5.72668 -6.19397 0.726465
lowerback -1.32513 4.64787 -2.18533
upperback -1.86715 6.1972 -1.29923
thorax -1.26314 3.11737 -0.108591
lowerneck -10.1165 -1.3086 -2.30234
upperneck 17.1932 -1.86588 2.66255
head 6.96478 -0.810492 1.07483
rclavicle 3.30355e-014 -1.47101e-014
rhumerus -35.034 -6.14718 -85.3736
rradius 30.4439
rwrist -4.54804
rhand -21.9044 -34.0217
rfingers 7.12502
rthumb 4.50113 -63.9539
lclavicle 3.30355e-014 -1.47101e-014
lhumerus -41.253 20.7276 71.3483
lradius 16.619
lwrist -3.49737
lhand -24.8762 -10.3276
lfingers 7.12502
lthumb 1.63109 19.6459
rfemur -14.895 3.33328 19.0909
rtibia 66.635
rfoot 1.04092 0.36111
rtoes -22.7097
lfemur -25.7024 1.90071 -24.1858
ltibia 31.6128
lfoot -12.1199 1.44844
ltoes 0.393561
231
root 7.18985 16.1655 -8.71994 5.48745 -6.28142 1.00539
lowerback -1.28367 4.53226 -2.4346
upperback -1.62026 6.04771 -1.33707
thorax -1.05228 3.04207 -0.000654251
lowerneck -10.3709 -1.20835 -2.1832
upperneck 17.1339 -1.73459 2.60819
head 6.98553 -0.743073 1.04808
rclavicle -2.27111e-014 -1.98785e-015
rhumerus -35.5564 -6.5264 -85.3268
rradius 29.6496
rwrist -4.64278
rhand -22.3848 -32.3792
rfingers 7.12502
rthumb 4.03722 -62.3207
lclavicle -2.27111e-014 -1.98785e-015
lhumerus -39.3346 20.7725 72.3462
lradius 16.4461
lwrist -3.34742
lhand -25.0611 -10.0312
lfingers 7.12502
lthumb 1.4526 19.9436
rfemur -16.1222 2.94276 18.9491
rtibia 67.2468
rfoot 0.0635031 0.91547
rtoes -29.8871
lfemur -24.8482 1.94109 -24.6064
ltibia 31.5408
lfoot -12.9688 1.27282
ltoes 0.853441
232
root 7.19763 16.1673 -8.58542 5.49533 -6.41233 0.933582
lowerback -1.2842 4.40516 -2.43638
upperback -1.59836 5.87903 -1.28509
thorax -1.03192 2.95776 0.0546792
lowerneck -10.3112 -1.02921 -2.02733
upperneck 17.1553 -1.49355 2.47261
head 6.97349 -0.629574 1.00053
rclavicle -6.56238e-014 -7.95139e-015
rhumerus -36.1655 -7.10132 -85.282
rradius 28.9445
rwrist -3.99632
rhand -21.7295 -32.7709
rfingers 7.12502
rthumb 4.66999 -62.6994
lclavicle -6.56238e-014 -7.95139e-015
lhumerus -37.7428 21.3199 72.8129
lradius 16.0509
lwrist -3.96422
lhand -25.0033 -11.1602
lfingers 7.12502
lthumb 1.50834 18.8142
rfemur -17.4874 3.29894 19.0977
rtibia 67.7723
rfoot -1.22006 1.22298
rtoes -21.3333
lfemur -24.3187 2.17988 -24.6232
ltibia 31.5088
lfoot -13.5113 1.00006
ltoes 0.609889
233
root 7.20365 16.1672 -8.45317 5.46996 -6.39991 0.986829
lowerback -1.04326 4.27231 -2.62359
upperback -1.85479 5.68898 -1.18247
thorax -1.45512 2.87083 0.227736
lowerneck -9.91699 -0.891799 -2.10642
upperneck 17.4085 -1.28878 2.40176
head 6.98058 -0.544329 1.01113
rclavicle 1.17034e-014 7.55382e-015
rhumerus -37.3821 -7.655 -84.9579
rradius 28.3192
rwrist -3.38166
rhand -21.8714 -33.6279
rfingers 7.12502
rthumb 4.53298 -63.5594
lclavicle 1.17034e-014 7.55382e-015
lhumerus -36.8327 21.4867 73.3727
lradius 16.0906
lwrist -4.48223
lhand -24.8983 -12.1418
lfingers 7.12502
lthumb 1.60978 17.8319
rfemur -18.7078 3.58472 19.0971
rtibia 68.1146
rfoot -2.65454 2.1652
rtoes -10.949
lfemur -23.7206 2.19624 -24.7439
ltibia 31.4352
lfoot -13.8358 0.88363
ltoes -0.742518
234
root 7.21588 16.1686 -8.31427 5.35629 -6.37501 1.14085
lowerback -0.951578 4.1356 -2.77439
upperback -1.9221 5.5024 -1.12083
thorax -1.59149 2.78181 0.363586
lowerneck -9.92293 -0.841246 -2.28989
upperneck 17.8335 -1.18795 2.36831
head 7.11752 -0.510151 1.04142
rclavicle 5.19636e-014 -9.14409e-015
rhumerus -38.3133 -8.10204 -84.6783
rradius 27.4828
rwrist -3.64513
rhand -23.1828 -33.1034
rfingers 7.12502
rthumb 3.26659 -63.0582
lclavicle 5.19636e-014 -9.14409e-015
lhumerus -35.7985 20.869 74.5352
lradius 16.6789
lwrist -3.78423
lhand -24.8363 -12.1198
lfingers 7.12502
lthumb 1.66963 17.8534
rfemur -19.74 3.49613 19.0273
rtibia 68.1689
rfoot -4.02735 3.04431
rtoes -8.76596
lfemur -22.9117 2.1271 -24.9983
ltibia 31.203
lfoot -14.1584 0.953116
ltoes -1.7197
235
root 7.23376 16.1784 -8.16476 5.15485 -6.37806 1.22598
lowerback -1.0654 3.9869 -2.71598
upperback -1.74773 5.31241 -1.0959
thorax -1.34011 2.68256 0.376728
lowerneck -9.95082 -0.800683 -2.25508
upperneck 17.8752 -1.10326 2.17815
head 7.13282 -0.484026 0.981663
rclavicle 8.9391e-014 7.15625e-015
rhumerus -38.8567 -9.18693 -83.9921
rradius 26.5352
rwrist -1.95779
rhand -22.1934 -33.1171
rfingers 7.12502
rthumb 4.22206 -63.055
lclavicle 8.9391e-014 7.15625e-015
lhumerus -34.2948 20.2639 75.6269
lradius 17.0107
lwrist -3.28811
lhand -24.4749 -12.712
lfingers 7.12502
lthumb 2.01874 17.2582
rfemur -20.7448 3.34656 19.018
rtibia 68.025
rfoot -5.29051 3.79638
rtoes -10.6819
lfemur -21.8509 2.03175 -25.1979
ltibia 30.8077
lfoot -14.582 1.03754
ltoes -2.41901
236
root 7.25 16.1914 -8.01639 5.00168 -6.29965 1.25343
lowerback -1.03174 3.78941 -2.74283
upperback -1.71162 5.04959 -0.995329
thorax -1.32594 2.55183 0.495003
lowerneck -10.0361 -0.650797 -2.11131
upperneck 18.1825 -0.89703 2.02786
head 7.24158 -0.388355 0.928697
rclavicle -1.76297e-014 6.55989e-015
rhumerus -39.6505 -10.4601 -82.9039
rradius 25.6871
rwrist 0.871282
rhand -19.8095 -33.1697
rfingers 7.12502
rthumb 6.52375 -63.0492
lclavicle -1.76297e-014 6.55989e-015
lhumerus -32.8881 19.921 76.4935
lradius 17.2578
lwrist -3.2098
lhand -23.8827 -12.8863
lfingers 7.12502
lthumb 2.59064 17.0777
rfemur -21.9315 3.2386 19.1127
rtibia 67.7718
rfoot -6.73001 4.41237
rtoes -13.6185
lfemur -20.8434 1.98754 -25.35
ltibia 30.4069
lfoot -15.0096 1.03889
ltoes -2.99633
237
root 7.26335 16.2021 -7.87461 4.99359 -6.23522 1.37197
lowerback -1.02268 3.65833 -2.85661
upperback -1.74549 4.8736 -1.0153
thorax -1.36846 2.46582 0.536497
lowerneck -10.2177 -0.519076 -1.9463
upperneck 18.5898 -0.768237 2.13299
head 7.40336 -0.304715 0.94894
rclavicle 5.10411e-014 -1.96797e-014
rhumerus -40.5102 -11.4743 -82.2418
rradius 25.0156
rwrist 1.75988
rhand -20.2888 -32.0525
rfingers 7.12502
rthumb 6.06104 -61.9458
lclavicle 5.10411e-014 -1.96797e-014
lhumerus -31.6744 19.1782 77.4115
lradius 17.8517
lwrist -2.46296
lhand -23.5542 -12.7835
lfingers 7.12502
lthumb 2.90789 17.1764
rfemur -23.2279 3.18287 19.1395
rtibia 67.4054
rfoot -8.51015 4.86403
rtoes -13.387
lfemur -20.1288 2.07326 -25.6099
ltibia 30.1226
lfoot -15.4661 1.01882
ltoes -3.30381
